<svg width="120" height="79" viewBox="0 0 120 79" fill="none" xmlns="http://www.w3.org/2000/svg">
<path d="M6.02273 38V14.7273H10.9432V24.3295H20.9318V14.7273H25.8409V38H20.9318V28.3864H10.9432V38H6.02273ZM37.3782 14.7273V38H32.4577V14.7273H37.3782ZM43.1001 18.7841V14.7273H62.2137V18.7841H55.0887V38H50.2251V18.7841H43.1001ZM67.9215 38V14.7273H77.1033C78.8609 14.7273 80.3609 15.0417 81.6033 15.6705C82.8533 16.2917 83.8041 17.1742 84.4556 18.3182C85.1147 19.4545 85.4442 20.7917 85.4442 22.3295C85.4442 23.875 85.1109 25.2045 84.4442 26.3182C83.7775 27.4242 82.8116 28.2727 81.5465 28.8636C80.2889 29.4545 78.7662 29.75 76.9783 29.75H70.8306V25.7955H76.1828C77.1222 25.7955 77.9025 25.6667 78.5238 25.4091C79.145 25.1515 79.6071 24.7652 79.9101 24.25C80.2207 23.7348 80.376 23.0947 80.376 22.3295C80.376 21.5568 80.2207 20.9053 79.9101 20.375C79.6071 19.8447 79.1412 19.4432 78.5124 19.1705C77.8912 18.8902 77.1071 18.75 76.1601 18.75H72.8419V38H67.9215ZM80.4897 27.4091L86.2738 38H80.8419L75.1828 27.4091H80.4897ZM95.4928 38H90.2201L98.2542 14.7273H104.595L112.618 38H107.345L101.516 20.0455H101.334L95.4928 38ZM95.1633 28.8523H107.618V32.6932H95.1633V28.8523Z" fill="#153C71"/>
<path d="M20.3977 40.7273H25.3182V55.8409C25.3182 57.5379 24.9129 59.0227 24.1023 60.2955C23.2992 61.5682 22.1742 62.5606 20.7273 63.2727C19.2803 63.9773 17.5947 64.3295 15.6705 64.3295C13.7386 64.3295 12.0492 63.9773 10.6023 63.2727C9.1553 62.5606 8.0303 61.5682 7.22727 60.2955C6.42424 59.0227 6.02273 57.5379 6.02273 55.8409V40.7273H10.9432V55.4205C10.9432 56.3068 11.1364 57.0947 11.5227 57.7841C11.9167 58.4735 12.4697 59.0152 13.1818 59.4091C13.8939 59.803 14.7235 60 15.6705 60C16.625 60 17.4545 59.803 18.1591 59.4091C18.8712 59.0152 19.4205 58.4735 19.8068 57.7841C20.2008 57.0947 20.3977 56.3068 20.3977 55.4205V40.7273ZM28.4801 44.7841V40.7273H47.5938V44.7841H40.4688V64H35.6051V44.7841H28.4801ZM50.7415 64V40.7273H55.6619V59.9432H65.6392V64H50.7415ZM68.8977 64V40.7273H84.5795V44.7841H73.8182V50.3295H83.7727V54.3864H73.8182V59.9432H84.625V64H68.8977ZM93.4119 40.7273V64H88.4915V40.7273H93.4119ZM97.4602 64V40.7273H113.142V44.7841H102.381V50.3295H112.335V54.3864H102.381V59.9432H113.188V64H97.4602Z" fill="#153C71"/>
</svg>
